<?xml version="1.0" encoding="UTF-8" standalone="no"?>
<!-- Created with Inkscape (http://www.inkscape.org/) -->

<svg
   xmlns:dc="http://purl.org/dc/elements/1.1/"
   xmlns:cc="http://creativecommons.org/ns#"
   xmlns:rdf="http://www.w3.org/1999/02/22-rdf-syntax-ns#"
   xmlns:svg="http://www.w3.org/2000/svg"
   xmlns="http://www.w3.org/2000/svg"
   xmlns:sodipodi="http://sodipodi.sourceforge.net/DTD/sodipodi-0.dtd"
   xmlns:inkscape="http://www.inkscape.org/namespaces/inkscape"
   width="744.09448"
   height="1052.3622"
   id="svg3020"
   version="1.1"
   inkscape:version="0.48.4 r9939"
   sodipodi:docname="Symbols.dxf">
  <defs
     id="defs3">
    <symbol
       id="*PAPER_SPACE" />
    <symbol
       id="*MODEL_SPACE" />
    <pattern
       id="Hatch"
       x="0"
       y="0"
       patternUnits="userSpaceOnUse"
       width="8"
       height="8">
      <path
         id="path3001"
         d="M8 4 l-4,4"
         stroke-width="0.25"
         stroke="#000000"
         linecap="square" />
      <path
         id="path3003"
         d="M6 2 l-4,4"
         stroke-width="0.25"
         stroke="#000000"
         linecap="square" />
      <path
         id="path3005"
         d="M4 0 l-4,4"
         stroke-width="0.25"
         stroke="#000000"
         linecap="square" />
    </pattern>
    <marker
       orient="auto"
       id="DistanceX"
       style="overflow:visible"
       refX="0.0"
       refY="0.0">
      <path
         id="path2998"
         d="M 3,-3 L -3,3 M 0,-5 L  0,5"
         style="stroke:#000000; stroke-width:0.5" />
    </marker>
    <symbol
       id="*PAPER_SPACE-0" />
    <symbol
       id="*MODEL_SPACE-4" />
    <pattern
       id="Hatch-7"
       x="0"
       y="0"
       patternUnits="userSpaceOnUse"
       width="8"
       height="8">
      <path
         id="path3049"
         d="M8 4 l-4,4"
         stroke-width="0.25"
         stroke="#000000"
         linecap="square" />
      <path
         id="path3051"
         d="M6 2 l-4,4"
         stroke-width="0.25"
         stroke="#000000"
         linecap="square" />
      <path
         id="path3053"
         d="M4 0 l-4,4"
         stroke-width="0.25"
         stroke="#000000"
         linecap="square" />
    </pattern>
    <marker
       orient="auto"
       id="DistanceX-1"
       style="overflow:visible"
       refX="0.0"
       refY="0.0">
      <path
         id="path3046"
         d="M 3,-3 L -3,3 M 0,-5 L  0,5"
         style="stroke:#000000; stroke-width:0.5" />
    </marker>
    <symbol
       id="*PAPER_SPACE-8" />
    <symbol
       id="*MODEL_SPACE-8" />
    <pattern
       id="Hatch-4"
       x="0"
       y="0"
       patternUnits="userSpaceOnUse"
       width="8"
       height="8">
      <path
         id="path3111"
         d="M8 4 l-4,4"
         stroke-width="0.25"
         stroke="#000000"
         linecap="square" />
      <path
         id="path3113"
         d="M6 2 l-4,4"
         stroke-width="0.25"
         stroke="#000000"
         linecap="square" />
      <path
         id="path3115"
         d="M4 0 l-4,4"
         stroke-width="0.25"
         stroke="#000000"
         linecap="square" />
    </pattern>
    <marker
       orient="auto"
       id="DistanceX-9"
       style="overflow:visible"
       refX="0.0"
       refY="0.0">
      <path
         id="path3108"
         d="M 3,-3 L -3,3 M 0,-5 L  0,5"
         style="stroke:#000000; stroke-width:0.5" />
    </marker>
    <symbol
       id="*PAPER_SPACE-1" />
    <symbol
       id="*MODEL_SPACE-5" />
    <pattern
       id="Hatch-45"
       x="0"
       y="0"
       patternUnits="userSpaceOnUse"
       width="8"
       height="8">
      <path
         id="path3187"
         d="M8 4 l-4,4"
         stroke-width="0.25"
         stroke="#000000"
         linecap="square" />
      <path
         id="path3189"
         d="M6 2 l-4,4"
         stroke-width="0.25"
         stroke="#000000"
         linecap="square" />
      <path
         id="path3191"
         d="M4 0 l-4,4"
         stroke-width="0.25"
         stroke="#000000"
         linecap="square" />
    </pattern>
    <marker
       orient="auto"
       id="DistanceX-2"
       style="overflow:visible"
       refX="0.0"
       refY="0.0">
      <path
         id="path3184"
         d="M 3,-3 L -3,3 M 0,-5 L  0,5"
         style="stroke:#000000; stroke-width:0.5" />
    </marker>
    <symbol
       id="*PAPER_SPACE-5" />
    <symbol
       id="*MODEL_SPACE-1" />
    <pattern
       id="Hatch-1"
       x="0"
       y="0"
       patternUnits="userSpaceOnUse"
       width="8"
       height="8">
      <path
         id="path3244"
         d="M8 4 l-4,4"
         stroke-width="0.25"
         stroke="#000000"
         linecap="square" />
      <path
         id="path3246"
         d="M6 2 l-4,4"
         stroke-width="0.25"
         stroke="#000000"
         linecap="square" />
      <path
         id="path3248"
         d="M4 0 l-4,4"
         stroke-width="0.25"
         stroke="#000000"
         linecap="square" />
    </pattern>
    <marker
       orient="auto"
       id="DistanceX-7"
       style="overflow:visible"
       refX="0.0"
       refY="0.0">
      <path
         id="path3241"
         d="M 3,-3 L -3,3 M 0,-5 L  0,5"
         style="stroke:#000000; stroke-width:0.5" />
    </marker>
  </defs>
  <sodipodi:namedview
     inkscape:document-units="in"
     id="base"
     pagecolor="#ffffff"
     bordercolor="#666666"
     borderopacity="1.0"
     inkscape:pageopacity="0.0"
     inkscape:pageshadow="2"
     inkscape:zoom="0.70050653"
     inkscape:cx="-163.06738"
     inkscape:cy="193.004"
     inkscape:current-layer="layer6"
     showgrid="false"
     units="in"
     showguides="true"
     inkscape:guide-bbox="true"
     inkscape:window-width="1280"
     inkscape:window-height="660"
     inkscape:window-x="-8"
     inkscape:window-y="-8"
     inkscape:window-maximized="1" />
  <metadata
     id="metadata4">
    <rdf:RDF>
      <cc:Work
         rdf:about="">
        <dc:format>image/svg+xml</dc:format>
        <dc:type
           rdf:resource="http://purl.org/dc/dcmitype/StillImage" />
        <dc:title></dc:title>
      </cc:Work>
    </rdf:RDF>
  </metadata>
  <g
     inkscape:groupmode="layer"
     id="layer11"
     inkscape:label="Artifact"
     style="display:inline">
    <path
       style="fill:#221e1f"
       d="m -23.123006,1093.326 -0.311455,-1.5451 -0.09247,-0.8622 0.6176,-0.5283 2.043032,-0.4607 4.183828,-0.659 2.921672,-0.7294 2.889845,-1.2226 2.6041142,-1.5858 2.064475,-1.8194 1.2023341,-1.4663 0.7175183,-1.4465 0.4251608,-2.0088 0.3252655,-3.1531 0.5425256,-10.137 0.052105,-4.4751 -2.4871509,-1.2975 -2.487151,-1.2974 -2.7125112,-1.5086 -2.300141,-1.5068 -1.947023,-1.5751 -1.653155,-1.7136 -1.418536,-1.922 -1.243175,-2.2007 -1.12706,-2.5496 -1.070193,-2.9685 -1.650457,-5.0398 -1.120174,-3.575 -0.637324,-2.2679 -0.201905,-1.1184 -0.223287,-0.7605 -0.597435,-0.5501 -0.862956,-0.475 -1.019829,-0.5353 -0.787979,-0.4653 -1.343316,-0.9815 -1.288196,-1.4047 -0.622604,-1.735 0.417688,-1.605 1.029808,-1.1472 1.31341,-0.9272 1.268486,-0.945 0.985671,-1.4707 0.579323,-1.498 0.238064,-1.4707 -0.0381,-1.3884 -0.407709,-3.5106 -0.317861,-2.0978 0.0592,-1.1353 0.6328,-1.385 0.648663,-0.962 0.975435,-0.8657 51.144237,0 0.558476,0.034 0.524963,0.1153 0.500422,0.2478 0.484853,0.4309 0.302877,0.42 0.155299,0.5037 0.03362,0.6084 -0.06207,0.7347 -0.131927,0.8821 -0.175834,1.0509 -0.19383,1.2409 -0.185916,1.4524 -0.134708,1.8173 -2.16e-4,1.522 0.08982,1.2049 0.135443,0.8659 0.547972,1.2983 0.860164,0.975 0.932838,0.7687 0.766013,0.6793 0.649595,0.5855 0.742314,0.6721 0.616519,0.9102 0.272227,1.3 -0.594136,1.8431 -1.184884,1.3571 -1.285452,0.8906 -0.89585,0.4432 -0.9001,0.5847 -0.897319,1.0403 -0.825973,1.5339 -0.686074,2.065 -0.483729,1.8442 -0.496546,1.764 -0.508629,1.684 -0.519952,1.6041 -2.178112,5.6231 -2.299483,4.3642 -2.372959,3.119 -2.972502,2.3838 -3.850139,2.2871 -5.2891253,3.0192 -0.2106754,11.2738 0.2660194,2.4809 0.219512,2.2654 0.1502348,1.7997 0.058182,1.0833 0.2034718,0.8619 0.5904773,1.0532 0.9638293,1.2244 1.323528,1.3757 2.7253364,2.1081 3.205712,1.6118 3.478758,1.0334 3.544479,0.3731 1.75726,0.1309 1.140948,0.3957 0.576285,0.6933 0.06327,1.0237 -0.576589,0.7187 -2.87385,0.3919 -7.293063,0.1859 -13.8342251,0.1004 -24.4399889,0 z"
       id="path3554"
       inkscape:connector-curvature="0"
       sodipodi:nodetypes="cccccccccccccccccccccccccccccccccccccccccccccccccccccccccccccccccccccccccccccccccccccccccccccccccccccccccccccccccccccc" />
  </g>
  <g
     inkscape:groupmode="layer"
     id="layer5"
     inkscape:label="black"
     style="display:inline">
    <g
       id="g3276"
       transform="matrix(0.99951292,0,0,0.99951292,1.7431462,-4.0878753)">
      <g
         id="g3252"
         inkscape:label="0" />
      <g
         id="g3254"
         inkscape:label="Layer_1">
        <path
           id="path3256"
           d="m -18.590691,1094.5164 -0.495779,-0.6356 -0.375438,-0.7383 -0.262481,-0.9394 -0.156891,-1.239 -0.0587,-1.637 0.0322,-2.1335 0.115611,-2.7283 0.191661,-3.4216 0.160728,-2.968 0.0985,-2.5224 0.035,-2.1088 -0.03,-1.7273 -0.096,-1.378 -0.163262,-1.0608 -0.232051,-0.7756 -0.302088,-0.5225 -0.361268,-0.3186 -0.560842,-0.3415 -0.732171,-0.3537 -0.875219,-0.3553 -0.989971,-0.3462 -1.07645,-0.3264 -1.134638,-0.2961 -1.164561,-0.2552 -4.175029,-0.8844 -3.308169,-0.8751 -2.55718,-0.9522 -1.922053,-1.1157 -1.402799,-1.3658 -0.999422,-1.7024 -0.711907,-2.1254 -0.54028,-2.6349 -0.26067,-3.6592 0.323068,-4.0798 0.84595,-4.3256 1.308019,-4.396 1.709313,-4.2915 2.049768,-4.0119 2.32943,-3.5572 2.548272,-2.9274 1.072318,-1.024 0.843623,-0.7597 0.649527,-0.5082 0.490071,-0.2691 0.365209,-0.043 0.274971,0.171 0.219359,0.3721 0.198351,0.5607 0.58843,1.7539 0.61527,1.4748 0.666089,1.223 0.74088,0.9984 0.839651,0.8012 0.962369,0.6313 1.10908,0.4887 1.27975,0.3733 1.679471,0.3529 1.252861,0.1585 0.83014,-0.043 0.411339,-0.2513 -0.004,-0.4664 -0.414379,-0.6884 -0.821519,-0.9175 -1.224861,-1.1531 -0.797889,-0.7627 -0.68839,-0.769 -0.58617,-0.7893 -0.491222,-0.8231 -0.40353,-0.8709 -0.323139,-0.9323 -0.250001,-1.0076 -0.184139,-1.0965 -0.0709,-0.5288 -0.0709,-0.5288 -0.0709,-0.5288 -0.0709,-0.5288 -0.0709,-0.5287 -0.0709,-0.5288 -0.0709,-0.5288 -0.0709,-0.5288 0.609878,-0.2669 0.609871,-0.2669 0.609881,-0.2668 0.609881,-0.2669 0.609877,-0.2669 0.609871,-0.2669 0.609881,-0.2669 0.609877,-0.2669 3.993162,-1.3616 4.59484,-0.9162 4.995971,-0.4771 5.196529,-0.045 5.19654,0.3814 4.995999,0.8009 4.59489,1.2139 3.99324,1.6204 1.796531,0.9559 1.31366,0.8495 0.839732,0.7921 0.374729,0.7837 -0.0813,0.8242 -0.528449,0.9137 -0.966649,1.0522 -1.3959,1.2396 -1.490032,1.3427 -0.946261,1.0578 -0.413058,0.7641 0.109559,0.4615 0.621631,0.1501 1.123129,-0.1701 1.61404,-0.4992 2.0944,-0.8372 0.974331,-0.3974 0.9666,-0.3486 0.933591,-0.2938 0.875306,-0.233 0.791752,-0.166 0.682909,-0.093 0.548791,-0.014 0.389409,0.071 1.100282,0.7618 1.339838,1.4587 1.491963,2.0115 1.556667,2.4199 1.533982,2.6838 1.423878,2.8036 1.22636,2.7789 0.941442,2.6099 0.720738,2.6076 0.55593,2.6265 0.38841,2.5951 0.218201,2.5136 0.0453,2.3819 -0.130302,2.2002 -0.308629,1.9681 -0.48966,1.6862 -0.651628,1.242 -0.969233,1.1851 -1.249079,1.1056 -1.491191,1.0039 -1.6956,0.8799 -1.862199,0.7337 -1.991129,0.565 -2.082303,0.3741 -0.977368,0.1462 -1.041059,0.1933 -1.072733,0.2322 -1.072357,0.2628 -1.039982,0.285 -0.975561,0.299 -0.879119,0.3046 -0.750639,0.3019 -0.409532,0.1805 -0.409528,0.1805 -0.409528,0.1805 -0.409543,0.1805 -0.409528,0.1804 -0.409532,0.1805 -0.409529,0.1805 -0.409531,0.1805 0.0146,1.6391 0.0147,1.6391 0.0147,1.639 0.0146,1.6391 0.0147,1.6391 0.0147,1.6391 0.0146,1.6391 0.0147,1.6391 0.005,2.7194 -0.0338,2.5442 -0.0691,2.3199 -0.101211,2.0463 -0.130653,1.7237 -0.156947,1.352 -0.180202,0.931 -0.200459,0.461 -0.235701,0.1906 -0.293109,0.164 -0.3389,0.1346 -0.373,0.1028 -0.395462,0.068 -0.406318,0.032 -0.405482,-0.01 -0.392949,-0.051 -0.479608,-0.1399 -0.406832,-0.2317 -0.339849,-0.3349 -0.278631,-0.4499 -0.22319,-0.577 -0.173519,-0.7156 -0.129621,-0.8662 -0.0915,-1.0286 -0.0638,-0.8478 -0.0793,-0.8796 -0.0917,-0.886 -0.100988,-0.8667 -0.10705,-0.8218 -0.109991,-0.7512 -0.109761,-0.6552 -0.106388,-0.5334 -0.343612,-0.9922 -0.483878,-0.6999 -0.566752,-0.4098 -0.592338,-0.1217 -0.56053,0.1642 -0.47138,0.448 -0.324883,0.7297 -0.121039,1.0093 -0.0675,0.8932 -0.199488,0.8197 -0.327111,0.7408 -0.45028,0.6568 -0.569091,0.5672 -0.68355,0.4726 -0.793548,0.3725 -0.89916,0.2674 -0.374911,0.027 -0.33239,-0.099 -0.293301,-0.2315 -0.257329,-0.3707 -0.22495,-0.5156 -0.19586,-0.6668 -0.170121,-0.8243 -0.14771,-0.9879 -0.36792,-1.966 -0.49348,-1.3287 -0.58523,-0.7025 -0.643209,-0.087 -0.667411,0.5167 -0.657839,1.1099 -0.614481,1.6917 -0.537339,2.2627 -0.547051,2.3181 -0.63096,1.7593 -0.690789,1.1899 -0.726552,0.6103 -0.738219,0.02 -0.725801,-0.5801 -0.689357,-1.1911 -0.628671,-1.8121 -0.212691,-0.7886 -0.198648,-0.7801 -0.180241,-0.7515 -0.157461,-0.7025 -0.13033,-0.6334 -0.098798,-0.5439 -0.063,-0.4343 -0.022702,-0.3042 -0.030299,-0.2508 -0.084699,-0.2807 -0.133211,-0.3013 -0.175861,-0.3122 -0.212588,-0.3139 -0.243401,-0.3058 -0.26838,-0.2885 -0.287409,-0.2614 -0.402441,-0.3023 -0.35549,-0.19 -0.32085,-0.073 -0.298591,0.049 -0.288588,0.1751 -0.290941,0.3063 -0.305649,0.4421 -0.33261,0.5826 -0.223902,0.49 -0.189379,0.5593 -0.1521,0.6089 -0.112039,0.6391 -0.0693,0.6496 -0.0237,0.6407 0.0245,0.6122 0.0756,0.5642 0.120858,1.1226 -0.0303,1.1964 -0.16099,1.2011 -0.271382,1.1371 -0.361459,1.0041 -0.431178,0.8026 -0.480561,0.5319 -0.509602,0.1927 -0.20947,-0.039 -0.262609,-0.11 -0.30511,-0.174 -0.337291,-0.2302 -0.358689,-0.2788 -0.36962,-0.3195 -0.369989,-0.3527 -0.35983,-0.3779 3.9e-5,-4e-4 -1.1e-5,0"
           style="fill:none;stroke:#000000"
           inkscape:connector-curvature="0" />
        <path
           id="path3258"
           d="m 6.59655,1071.8754 -0.040698,-2.0518 -0.305182,-2.311 -0.516019,-2.4062 -0.67326,-2.337 -0.776852,-2.1036 -0.826767,-1.7059 -0.823111,-1.1441 -0.765751,-0.4178 -0.183699,0.097 -0.200431,0.2778 -0.210688,0.4393 -0.214491,0.5812 -0.211829,0.7037 -0.202713,0.8067 -0.187101,0.8901 -0.165058,0.9542 -0.207871,1.2659 -0.189798,0.9779 -0.178621,0.7021 -0.174341,0.4386 -0.176967,0.1874 -0.186492,-0.052 -0.202921,-0.2781 -0.226248,-0.4923 -0.16353,-0.4681 -0.155332,-0.5649 -0.143529,-0.6402 -0.12814,-0.694 -0.109151,-0.7262 -0.0865,-0.7369 -0.060399,-0.726 -0.0306,-0.6937 -0.039501,-0.7574 -0.083398,-0.6582 -0.127053,-0.5584 -0.170479,-0.4579 -0.213658,-0.3571 -0.25656,-0.2558 -0.29925,-0.1538 -0.341692,-0.051 -1.107099,0.7375 -1.054839,1.9656 -0.934611,2.8234 -0.746429,3.311 -0.490281,3.4281 -0.166181,3.175 0.225872,2.5516 0.685878,1.5578 0.319602,0.1908 0.546697,0.1781 0.744042,0.1613 0.911661,0.1407 1.04952,0.1163 1.157669,0.088 1.236069,0.056 1.284739,0.019 0.787373,0 0.787369,0 0.787369,0 0.787372,0 0.787369,0 0.787362,0 0.787369,0 0.787369,0 0.0368,-0.6278 0.036801,-0.6278 0.036797,-0.6278 0.036801,-0.6279 0.036801,-0.6278 0.036801,-0.6278 0.0368,-0.6278 0.036819,-0.628"
           style="fill:none;stroke:#000000"
           inkscape:connector-curvature="0" />
        <path
           id="path3260"
           d="m -10.420331,1057.8413 1.682401,-1.9337 0.601519,-2.494 -0.365779,-2.8435 -1.219461,-2.9825 -1.959548,-2.9109 -2.58604,-2.6287 -3.09892,-2.1359 -3.498211,-1.4325 -1.69076,-0.3342 -1.666489,-0.065 -1.636841,0.2027 -1.601809,0.4682 -1.561411,0.7316 -1.515639,0.993 -1.464502,1.2523 -1.407968,1.5096 -1.68451,2.3634 -1.128912,2.3715 -0.58118,2.3075 -0.0413,2.171 0.490713,1.9623 1.014849,1.6813 1.531152,1.328 2.039577,0.9024 2.362432,0.5001 2.896679,0.3298 3.20755,0.1646 3.295038,0 3.159142,-0.1508 2.799861,-0.3008 2.2172,-0.4458 1.411168,-0.5857 0,0"
           style="fill:none;stroke:#000000"
           inkscape:connector-curvature="0" />
        <path
           id="path3262"
           d="m 32.298711,1057.9639 1.981559,-1.2028 1.36429,-1.6319 0.753049,-1.9696 0.147901,-2.2157 -0.45123,-2.3705 -1.044301,-2.4338 -1.631338,-2.4056 -2.21231,-2.286 -2.497561,-1.7294 -2.689391,-1.0265 -2.805838,-0.3411 -2.84691,0.3271 -2.812602,0.9778 -2.702888,1.6111 -2.51781,2.227 -2.257353,2.8257 -0.932967,1.6497 -0.692312,1.7718 -0.448058,1.8114 -0.200201,1.7685 0.051201,1.6433 0.306319,1.4355 0.564959,1.1453 0.82722,0.7727 1.584992,0.5026 2.54097,0.337 3.198749,0.1762 3.558259,0.02 3.61956,-0.1316 3.3826,-0.2786 2.847412,-0.4209 2.013988,-0.5586 4.2e-5,-10e-5"
           style="fill:none;stroke:#000000"
           inkscape:connector-curvature="0" />
      </g>
    </g>
  </g>
  <g
     inkscape:groupmode="layer"
     id="layer3"
     inkscape:label="blue"
     style="display:inline">
    <g
       style="display:inline"
       id="g3139"
       transform="matrix(0.99951292,0,0,0.99951292,2.4482886,-2.6428795)">
      <g
         id="g3119"
         inkscape:label="0" />
      <g
         id="g3121"
         inkscape:label="Layer_1">
        <path
           id="path3123"
           d="m -10.194059,1089.9561 -2.250301,-0.9715 -2.109349,-1.2209 -1.960721,-1.452 -1.8044,-1.6648 -1.64041,-1.8593 -1.46874,-2.0354 -1.289381,-2.1934 -1.10233,-2.3329 -0.907611,-2.4542 -0.705206,-2.5573 -0.495131,-2.6419 -0.277353,-2.7083 -0.0519,-2.7565 0.18123,-2.7863 1.0926,-5.5887 1.51492,-4.4927 2.004611,-4.6663 2.455838,-4.779 2.868584,-4.8311 3.242817,-4.8221 3.57857,-4.7526 3.907382,-4.5964 4.103068,-4.4566 1.343579,-1.3638 1.343583,-1.3637 1.34358,-1.3638 1.34359,-1.3638 0.13579,2.2388 0.13578,2.2388 0.13579,2.2387 0.062798,1.1198 0.0729,1.119 0.258179,3.2611 0.350752,3.0208 0.53549,2.5223 0.791631,2.3635 1.12438,2.395 1.533749,2.6167 2.019699,3.0286 2.58226,3.6309 2.654263,3.7705 2.169737,3.3245 1.72496,2.9701 1.31992,2.7074 0.954603,2.5362 0.629018,2.4566 0.343209,2.4688 0.0971,2.5723 -0.306149,3.9609 -0.857749,3.7628 -1.37627,3.5166 -1.86171,3.2221 -2.31412,2.8792 -2.733421,2.488 -3.119651,2.0484 -3.472827,1.5606 -4.057753,0.8974 -4.910389,0.3079 -2.501859,-0.068 -2.387292,-0.2177 -2.163551,-0.3672 -1.830479,-0.5164 0,0 0,10e-5 0,0 0,0 0,0 0,10e-5 0,0 0,0 0,0 0,0 0,0 0,0 0,0 0,1e-4 0,0 9.2e-5,0"
           style="fill:none;stroke:#000000"
           inkscape:connector-curvature="0" />
        <path
           id="path3125"
           d="m 17.567061,1069.2909 0.81411,-1.053 0.631758,-1.3039 0.408819,-1.4475 0.145311,-1.4837 -0.61803,-3.3502 -0.672169,-1.9869 -0.825059,-1.9967 -0.91102,-1.8579 -0.930122,-1.5706 -0.882269,-1.1347 -0.767519,-0.5503 -0.508001,0.3935 -0.648209,1.283 -0.724252,1.9471 -0.736129,2.386 -0.68383,2.5995 -0.567361,2.5877 -0.386731,2.3506 -0.141909,1.8883 0.396553,1.5697 1.055207,1.3523 1.517311,0.9586 1.783538,0.3887 1.470313,-0.5659 1.77969,-1.4037"
           style="fill:none;stroke:#000000"
           inkscape:connector-curvature="0" />
      </g>
    </g>
  </g>
  <g
     inkscape:groupmode="layer"
     id="layer4"
     inkscape:label="green"
     style="display:inline">
    <g
       id="g3223"
       transform="matrix(0.99951292,0,0,0.99951292,1.1410836,-3.5197521)">
      <g
         id="g3195"
         inkscape:label="0" />
      <g
         id="g3197"
         inkscape:label="Layer_1">
        <path
           id="path3199"
           d="m -3.57475,1095.6856 -0.54837,-0.6875 -0.548369,-0.6875 -0.548369,-0.6875 -0.548373,-0.6875 -0.416208,0.578 -0.416211,0.5779 -0.416221,0.578 -0.416208,0.578 -0.416211,0.578 -0.416221,0.578 -0.416208,0.5779 -0.416211,0.578 -0.559548,-0.7017 -0.559552,-0.7018 -0.559542,-0.7017 -0.559548,-0.7017 -1.38566,-1.4698 -1.590849,-0.9301 -2.24933,-0.567 -3.361089,-0.3806 -1.587182,-0.1351 -1.587189,-0.1351 -1.587182,-0.1351 -1.587179,-0.1351 0.874999,-0.4147 0.875002,-0.4148 0.874998,-0.4147 0.875002,-0.4147 1.655479,-0.6916 1.920179,-0.6569 1.946749,-0.5479 1.735161,-0.3648 3.292282,-1.0756 2.130349,-2.0073 0.991538,-2.9758 -0.124129,-3.9812 -1.350868,-4.1246 -2.541441,-3.6442 -3.37005,-2.7709 -3.836671,-1.5049 -1.93286,-0.2445 -1.487608,0.1767 -1.350662,0.6923 -1.521989,1.3022 -4.626982,3.2638 -4.512337,0.9678 -4.169052,-1.3189 -3.597087,-3.5963 -1.545683,-2.7984 -0.596108,-2.6026 0.344218,-2.598 1.2753,-2.7847 0.816491,-1.5483 0.34121,-1.1915 -0.112631,-1.0443 -0.545071,-1.1066 -1.148949,-2.8592 -0.0105,-2.9518 1.101391,-2.9019 2.18672,-2.7095 2.822181,-2.9551 1.724389,-2.7025 0.862009,-2.9658 0.235031,-3.7451 0.112209,-2.583 0.413639,-1.9191 0.830622,-1.5804 1.363117,-1.5665 1.538713,-1.3654 1.426468,-0.7673 1.631392,-0.2775 2.153427,0.1037 1.697932,0.2198 1.643669,0.293 1.40186,0.328 0.972482,0.3247 0.929888,0.1576 0.94422,-0.4411 1.06881,-1.1254 1.303661,-1.8957 2.391162,-3.2284 2.57968,-2.2917 2.961598,-1.487 3.536951,-0.8141 3.565871,-0.2237 3.019347,0.4386 2.762072,1.1819 2.79405,2.0064 1.846088,1.3595 1.848012,0.8297 2.251938,0.4227 3.057892,0.1385 4.44584,0.4389 3.497379,1.3077 2.79607,2.319 2.34192,3.4727 0.918879,1.4913 1.14846,1.5371 1.231491,1.4017 1.16793,1.0855 1.046771,1.0283 0.901559,1.2462 0.660189,1.3068 0.322632,1.2102 0.358438,1.2881 0.757701,1.5191 1.045881,1.5603 1.222997,1.4119 2.230941,2.6443 1.307161,2.696 0.483839,3.0711 -0.23901,3.7698 -0.142151,1.9761 0.116742,1.8517 0.372901,1.7072 0.626301,1.5432 0.825579,2.6601 -0.278939,2.4672 -1.325732,2.1096 -2.314768,1.5873 -1.383651,0.478 -1.29346,0.02 -1.472871,-0.4826 -1.921911,-1.0305 -3.51011,-1.4707 -4.05378,-0.5892 -4.60265,0.2923 -5.156731,1.1736 -3.908987,1.5692 -2.592421,2.2373 -1.627618,3.3727 -1.014573,4.9759 -0.105329,6.4236 1.814131,4.4521 3.821609,2.5905 5.917139,0.8391 2.401721,0.1312 1.21866,0.5138 0.195991,1.0766 -0.666291,1.8199 -0.747088,1.2465 -0.995372,0.7449 -1.51262,0.3618 -2.29882,0.097 -1.88747,0.1157 -1.75134,0.3199 -1.455842,0.4828 -1.001019,0.6047 -0.972819,0.7506 -0.846429,0.1886 -0.995921,-0.406 -1.421301,-1.0332 -2.235739,-1.4361 -1.874941,-0.4812 -1.56427,0.4738 -1.303718,1.4285 -1.02791,1.4366 -0.88161,0.3905 -1.069583,-0.7106 -1.591798,-1.8665 0,-10e-5 0,0 0,-10e-5 0,7e-4"
           style="fill:none;stroke:#000000"
           inkscape:connector-curvature="0" />
        <path
           id="path3201"
           d="m -9.228292,1059.5197 -1.663487,-2.1002 -2.382902,-1.6858 -2.642577,-1.0234 -2.442561,-0.1132 -1.34353,0.6141 -0.77731,0.9568 -0.0282,0.8821 0.90376,0.3898 0.867539,0.2328 1.37648,0.6334 1.696191,0.9367 1.826681,1.1427 3.172858,1.8593 1.82649,0.4754 0.4793,-0.9085 -0.868731,-2.292"
           style="fill:none;stroke:#000000"
           inkscape:connector-curvature="0" />
        <path
           id="path3203"
           d="m 17.832309,1056.9566 1.991651,-1.1493 0.837088,-1.1438 -0.376859,-0.8774 -1.650167,-0.3504 -1.780863,0.4759 -2.115329,1.1362 -1.768688,1.3588 -0.740923,1.144 0.305762,0.6784 0.976621,0.1334 1.73644,-0.421 2.585267,-0.9848"
           style="fill:none;stroke:#000000"
           inkscape:connector-curvature="0" />
        <path
           id="path3205"
           d="m 13.75779,1044.3785 0.723469,-1.5465 0.221382,-1.0685 -0.290633,-0.8682 -0.812586,-0.9456 -1.819921,-1.2305 -1.58108,0.029 -1.17849,1.2146 -0.61217,2.3263 -0.0824,1.4052 0.012498,1.3593 0.100513,1.1583 0.18152,0.8022 0.890156,0.8976 1.332822,-0.2322 1.505789,-1.2238 1.409131,-2.0771"
           style="fill:none;stroke:#000000"
           inkscape:connector-curvature="0" />
        <path
           id="path3207"
           d="m -11.997971,1046.2571 -0.894738,-1.4544 -1.35258,-0.8716 -1.523671,-0.1837 -1.40799,0.6096 -0.56745,0.5767 -0.382369,0.6056 -0.163662,0.5624 0.0887,0.4473 1.39078,0.726 2.201162,0.1602 1.95614,-0.3558 0.655678,-0.8223"
           style="fill:none;stroke:#000000"
           inkscape:connector-curvature="0" />
        <path
           id="path3209"
           d="m -2.24471,1041.3919 0.0819,-1.0917 -0.604531,-1.3073 -1.005601,-1.0969 -1.121286,-0.4603 -0.602621,0.5396 -0.253471,1.2606 0.121862,1.4438 0.523339,1.0893 0.75212,0.5181 0.764759,0.1049 0.721432,-0.3009 0.622098,-0.6992"
           style="fill:none;stroke:#000000"
           inkscape:connector-curvature="0" />
      </g>
    </g>
  </g>
  <g
     inkscape:groupmode="layer"
     id="layer7"
     inkscape:label="phyrexian"
     style="display:inline">
    <path
       style="fill:#111212"
       inkscape:connector-curvature="0"
       d="m 28.83152,1048.2754 -1.213736,-7.8991 -3.754761,-7.0334 -2.281558,-2.7674 -2.352839,-2.6952 -6.662758,-3.6779 -7.23743,-2.6441 -0.5965503,-3.5398 -0.008,-3.5563 0.2034309,-1.1875 -0.2324397,-1.1613 -0.5546677,-4.2312 0.1775534,-4.3183 -0.2655795,-2.3282 -1.210865,-1.90208 -0.9739234,4.52038 -1.41879755,4.4003 -0.49627915,3.4682 -0.91714706,3.3699 -0.23920144,3.0391 -1.7163876,2.6085 -4.6851618,1.7896 -4.395574,2.3207 -2.862243,2.2117 -3.026531,1.9926 -2.294191,2.93 -1.651998,3.3118 -2.776337,5.6458 -1.879073,6.0748 1.02543,8.7798 3.826033,7.9163 3.576697,3.6604 3.574457,3.6597 3.907928,2.1223 3.9694456,2.006 2.591781,0.5063 2.5857789,0.555 2.02498015,10.7067 3.06855565,10.4327 0.8471252,-4.2569 0.7533568,-4.2786 -0.007,-6.2798 0.1237876,-6.224 3.5815787,-1.1393 3.7406269,-0.9553 6.118465,-3.9198 5.275968,-4.9229 2.128012,-3.1044 1.299021,-3.4366 0.962041,-5.2689 z m -30.3821557,21.9386 -4.2874106,-1.5568 -3.9280648,-2.3154 -3.1714559,-3.4523 -3.144446,-3.4837 -2.02361,-5.0343 -0.92828,-5.4439 0.626689,-3.6529 0.512654,-3.6753 2.049999,-2.7854 1.533082,-3.0854 3.163833,-3.3677 3.4571614,-3.1143 2.8854998,-1.2127 3.2553506,0.093 -0.1970589,3.0324 0.3310996,3.0105 0.46377,1.8179 0.14041158,1.8592 0.0544135,4.0508 -0.17142146,4.0276 -0.4586385,8.401 0.72671986,8.4361 -0.30972407,3.7395 z m 22.4837767,-10.5731 -2.769585,2.2897 -2.582028,2.4966 -4.523613,3.0226 -4.9482417,2.2491 0.3346019,-3.8246 -0.5086551,-3.7847 -0.4690114,-8.53 1.3232701,-8.5772 -0.3368518,-5.1255 -1.2236187,-4.9266 0.4127548,-3.434 1.0736938,-3.332 3.3964021,1.6529 3.101554,2.1683 3.930316,2.5283 2.55964,3.6725 1.408805,2.8208 1.155968,2.859 -0.005,7.9766 z"
       id="path433"
       sodipodi:nodetypes="ccccccccccccccccccccccccccccccccccccccccccccccccccccccccccccccccccccccccccccccccccccccccccccccccc" />
  </g>
  <g
     inkscape:groupmode="layer"
     id="layer10"
     inkscape:label="plainswalker"
     style="display:inline">
    <path
       style="fill:#a29f9b"
       d="m 0.48848462,1092.7685 -0.15558319,-0.9777 -0.0647085,-1.5441 -0.15932136,-2.6638 -0.40237392,-3.5956 -0.25689081,-1.8726 -0.27513092,-1.7758 -0.27919996,-1.5692 -0.2690849,-1.2528 -0.449232,-1.7105 -0.5016156,-1.6846 -0.5494352,-1.6468 -0.5926822,-1.5974 -0.6313583,-1.5363 -0.6654677,-1.4636 -0.6950094,-1.3791 -0.7199781,-1.2828 -1.452845,-2.2587 -1.6240256,-2.1846 -1.766853,-2.0829 -1.881327,-1.9535 -1.967447,-1.7965 -2.025217,-1.6119 -2.054636,-1.3998 -2.055699,-1.1598 -0.863923,-0.447 -0.712419,-0.3964 -0.570823,-0.3539 -0.439141,-0.3194 -0.637981,-1.0932 0.108606,-1.5357 0.200717,-3.1824 0.825939,-11.7667 0.708556,-8.3067 0.287577,-1.2023 0.505648,-0.2485 0.980114,2.3143 0.707856,6.1444 0.440957,3.6826 0.714611,3.7575 1.212082,4.625 1.053259,0.2761 1.375,-0.617 0.600311,-1.1195 2.061157,-11.5008 1.307173,-12.895 0.517901,-4.0088 0.8869864,-0.5479 0.4077123,1.2336 0.3007945,2.6913 1.0184067,12.3038 1.2540259,8.924 0.2832209,1.5879 0.283225,1.5878 0.7114923,0 0.7114933,0 1.6692325,-0.7944 1.1312627,-5.3754 1.26631794,-10.8104 0.8435849,-13.394 0.43614746,-6.1682 0.9651577,-0.4429 0.695655,2.3708 0.9474253,12.7884 1.1851234,13.3134 1.1359225,7.6619 1.3124614,0.6635 1.4806264,-0.081 1.5529583,-7.3938 1.5279522,-12.2992 0.511252,-5.2554 0.406984,-2.6974 0.810539,-0.018 0.578037,5.4566 0.91737,9.942 1.433966,10.5372 1.018756,3.5436 1.747733,0.9928 2.006242,-3.25 1.764819,-9.0894 0.889158,-6.0972 0.556719,-1.3428 0.323087,0.3821 0.292241,0.9186 0.91664,7.6762 0.702271,11.1049 0.311385,3.5887 -0.286908,2.2429 -0.379654,0.3384 -0.817586,0.536 -1.136055,0.6816 -1.335059,0.7747 -1.414611,0.8159 -1.374699,0.8048 -1.215328,0.7416 -0.936489,0.6262 -1.391078,1.1315 -1.444859,1.3941 -1.458502,1.6043 -1.43203,1.7627 -1.365441,1.8689 -1.2587191,1.9229 -1.1118811,1.925 -0.9249203,1.8749 -0.9153129,2.2001 -0.833129,2.3121 -0.7480545,2.4119 -0.6600913,2.5 -0.5692476,2.576 -0.4755073,2.6403 -0.3788853,2.6923 -0.2793739,2.7329 -0.3116641,3.3372 -0.2194221,1.653 -0.6872461,0.4372 z"
       id="path3613"
       inkscape:connector-curvature="0"
       sodipodi:nodetypes="cccccccccccccccccccccccccccccccccccccccccccccccccccccccccccccccccccccccccccccccccccccccccccccccccccccccccccccccccccc" />
  </g>
  <g
     inkscape:groupmode="layer"
     id="layer6"
     inkscape:label="snow"
     style="display:inline">
    <g
       id="g487"
       transform="matrix(0.99951292,0,0,0.99951292,-17.906616,679.1533)">
      <path
         style="fill:#0d0f0f"
         d="m 19.085912,325.38701 -8.803125,12.43125 -2.1375,-3.68437 -3.909375,-0.0563 -7.65,-3.68437 -0.61875,8.49375 -1.9125,3.40313 2.109375,3.65625 -15.159375,1.43437 6.328125,13.8375 -4.21875,0 -1.996875,3.375 -7.03125,4.78125 7.03125,4.78125 1.996875,3.375 4.21875,0 -6.328125,13.8375 15.159375,1.43437 -2.109375,3.65625 1.9125,3.40313 0.61875,8.49375 7.65,-3.68438 3.909375,-0.0562 2.1375,-3.68437 8.803125,12.43125 8.83125,-12.43125 2.109375,3.68437 3.909375,0.0562 7.65,3.68438 0.646875,-8.46563 1.9125,-3.43125 -2.109375,-3.65625 15.159375,-1.43437 -6.35625,-13.8375 4.246875,0 1.996875,-3.375 7.003125,-4.78125 -7.003125,-4.78125 -1.996875,-3.375 -4.246875,0 6.35625,-13.8375 -15.159375,-1.43437 2.109375,-3.65625 -1.9125,-3.40313 -0.646875,-8.49375 -7.65,3.68437 -3.909375,0.0563 -2.109375,3.68437 z m 0,8.07187 6.35625,11.08126 -6.35625,11.05312 -6.328125,-11.05312 z m -16.734375,3.2625 3.15,1.82813 0,3.62812 13.584375,21.90938 13.6125,-21.90938 0,-3.62812 3.15,-1.82813 3.15,1.82813 0,3.62812 -3.15,1.82813 -12.178125,22.725 25.7625,0.81562 3.15,-1.79999 3.178125,1.79999 0,3.65625 -3.178125,1.82813 -3.15,-1.82813 -25.7625,0.81563 12.178125,22.725 3.15,1.82813 0,3.62812 -3.15,1.82813 -3.15,-1.82813 0,-3.62812 -13.6125,-21.90938 -13.584375,21.90938 0,3.62812 -3.15,1.82813 -3.15,-1.82813 0,-3.62812 3.15,-1.82813 12.15,-22.725 -25.7625,-0.81563 -3.15,1.82813 -3.15,-1.82813 0,-3.65625 3.15,-1.79999 3.15,1.79999 25.7625,-0.81562 -12.15,-22.725 -3.15,-1.82813 0,-3.62812 z m -14.34375,14.70938 12.740625,0.0281 6.4125,11.025 -12.76875,-0.0281 z m 62.184375,0 -6.4125,11.025 -12.740625,0.0281 6.4125,-11.025 z m -43.03125,24.83437 -6.4125,11.02501 -12.740625,0.0281 6.384375,-11.02499 12.76875,-0.0281 z m 23.878125,0 12.740625,0.0281 6.4125,11.02499 -12.740625,-0.0281 -6.4125,-11.02501 z m -11.953125,6.89063 6.35625,11.05312 -6.35625,11.08126 -6.328125,-11.08126 z"
         id="polygon489"
         inkscape:connector-curvature="0"
         sodipodi:nodetypes="cccccccccccccccccccccccccccccccccccccccccccccccccccccccccccccccccccccccccccccccccccccccccccccccccccccccccccccccccccccccccccc" />
    </g>
  </g>
  <g
     inkscape:label="red"
     inkscape:groupmode="layer"
     id="layer1"
     transform="translate(0,1.8261719e-4)"
     style="display:inline">
    <g
       id="g3031"
       transform="matrix(0.99951292,0,0,0.99951292,0.85769569,-3.7250352)">
      <g
         id="g3009"
         inkscape:label="0" />
      <g
         id="g3011"
         inkscape:label="Layer_1">
        <path
           id="path3013"
           d="m -23.243141,1095.5762 -1.7001,-0.6339 -1.67636,-0.8664 -1.633319,-1.0816 -1.570989,-1.2795 -1.489362,-1.4601 -1.388427,-1.6235 -1.26821,-1.7695 -1.128692,-1.8984 -1.781402,-3.8448 -1.158757,-3.7442 -0.53719,-3.6344 0.0833,-3.5151 0.702747,-3.3863 1.321112,-3.2483 1.938409,-3.1009 2.554621,-2.9439 2.268301,-2.0802 2.254199,-1.6558 2.309751,-1.2501 2.434929,-0.8631 2.62975,-0.4948 2.894202,-0.1452 3.2283,0.1859 3.632038,0.4981 0.920218,0.1547 0.920222,0.1546 0.920211,0.1546 0.920218,0.1546 0.920222,0.1547 0.920218,0.1546 0.920211,0.1546 0.920222,0.1546 0.877149,-0.45 0.877149,-0.45 0.877149,-0.4501 0.87716,-0.45 0.877149,-0.45 0.877153,-0.4501 0.877149,-0.45 0.877149,-0.4501 0.87715,-0.45 0.877152,-0.45 0.87715,-0.4501 0.877149,-0.45 0.877149,-0.45 0.877149,-0.4501 0.877153,-0.45 0.877149,-0.45 0,0.324 0,0.3241 0,0.324 0,0.3241 0,0.324 0,0.3241 0,0.324 0,0.3241 -0.171652,1.7381 -0.492289,1.8576 -0.778968,1.9204 -1.03169,1.9267 -1.250441,1.8763 -1.43523,1.7694 -1.586041,1.6059 -1.702899,1.3857 -1.871891,1.4426 -1.45772,1.3461 -1.046919,1.2584 -0.639479,1.1794 -0.235431,1.1094 0.16526,1.0481 0.562588,0.9957 0.956551,0.952 1.115852,0.7783 1.13682,0.546 1.155788,0.3137 1.172732,0.081 1.18767,-0.1508 1.20059,-0.3829 1.211509,-0.6149 1.220411,-0.847 1.32272,-1.1652 1.143688,-1.2755 0.966291,-1.3894 0.790519,-1.5069 0.616362,-1.628 0.443828,-1.7528 0.272919,-1.8811 0.103653,-2.0131 0.0371,-1.0254 0.0888,-1.0749 0.134699,-1.0926 0.17477,-1.0781 0.209031,-1.0318 0.237458,-0.9533 0.260072,-0.843 0.276859,-0.7006 0.171709,-0.375 0.171712,-0.375 0.171709,-0.375 0.171709,-0.375 0.171701,-0.375 0.171709,-0.375 0.171712,-0.375 0.171709,-0.375 0.0101,0.4535 0.0102,0.4534 0.0102,0.4534 0.0102,0.4535 0.0102,0.4534 0.0101,0.4535 0.0102,0.4534 0.0102,0.4535 0.23433,2.2829 0.543631,1.6068 0.79002,0.9346 0.973477,0.2666 1.094032,-0.3976 1.151638,-1.0578 1.146352,-1.7139 1.07814,-2.3661 0.605169,-1.7464 0.350482,-1.4567 0.0753,-1.2193 -0.22034,-1.0342 -0.536461,-0.9017 -0.873039,-0.8213 -1.230108,-0.7935 -1.607641,-0.8179 -1.75679,-0.9398 -1.7086,-1.125 -1.60307,-1.2528 -1.440181,-1.3232 -1.219971,-1.3364 -0.942399,-1.2922 -0.60749,-1.1906 -0.215241,-1.0319 0.0183,-0.4058 0.0651,-0.2881 0.127587,-0.1698 0.205583,-0.051 0.29913,0.068 0.40821,0.1882 0.53286,0.3087 0.673048,0.4297 0.481691,0.2929 0.47582,0.2469 0.457629,0.1973 0.42716,0.1441 0.384371,0.087 0.329269,0.027 0.261882,-0.036 0.182179,-0.1034 0.399469,-0.7204 0.226201,-1.1074 0.064,-1.383 -0.087,-1.5474 -0.22698,-1.6003 -0.35584,-1.5421 -0.473581,-1.3723 -0.58021,-1.0915 -1.364988,-1.8175 -1.318493,-1.378 -1.328719,-0.9517 -1.39573,-0.5386 -1.519479,-0.1386 -1.69998,0.2481 -1.937239,0.6217 -2.23126,0.9821 -1.574412,0.693 -1.53046,0.5487 -1.435359,0.3977 -1.289101,0.2398 -1.091678,0.075 -0.843113,-0.096 -0.543387,-0.2742 -0.19249,-0.4591 0.058698,-0.1875 0.168112,-0.1976 0.265759,-0.2018 0.351641,-0.1999 0.425729,-0.1922 0.48803,-0.1786 0.53854,-0.1589 0.577269,-0.1333 1.27638,-0.3745 1.021763,-0.5411 0.753278,-0.6731 0.470948,-0.7708 0.174781,-0.834 -0.135237,-0.8629 -0.459121,-0.8572 -0.796851,-0.8172 -0.50519,-0.3418 -0.693478,-0.3685 -0.850724,-0.3837 -0.976868,-0.3872 -1.071982,-0.3792 -1.136009,-0.3595 -1.168969,-0.3282 -1.170878,-0.2853 -2.651801,-0.6884 -1.689913,-0.6417 -0.761697,-0.5701 0.132838,-0.4738 0.993671,-0.3529 1.820838,-0.2072 2.614312,-0.037 3.374111,0.1583 5.82935,0.6924 5.301478,1.2258 4.796649,1.7741 4.314841,2.3372 3.856061,2.9151 3.420312,3.5078 3.007587,4.1153 2.617891,4.7376 0.733599,1.4858 0.721092,1.3861 0.690168,1.256 0.640839,1.0957 0.573113,0.9051 0.48697,0.684 0.38243,0.4326 0.259469,0.151 0.18686,-0.096 0.17433,-0.2763 0.157972,-0.4367 0.13781,-0.5779 0.113818,-0.6996 0.086,-0.802 0.0544,-0.885 0.019,-0.9486 0.008,-1.4203 0.0312,-1.0663 0.0661,-0.7356 0.112291,-0.4281 0.169962,-0.1436 0.239067,0.1176 0.31962,0.3557 0.411601,0.5706 1.359911,2.4852 1.070029,2.9893 0.767161,3.3336 0.451319,3.5184 0.122531,3.5436 -0.21926,3.4091 -0.574002,3.1149 -0.941719,2.6612 -0.473772,0.866 -0.693517,1.082 -0.880111,1.2547 -1.03353,1.3841 -1.153789,1.4703 -1.24087,1.5132 -1.294802,1.5127 -1.315559,1.4691 -2.757859,3.1546 -1.85243,2.466 -0.947442,1.7766 -0.0429,1.0864 0.861261,0.3954 1.764961,-0.2962 2.668237,-0.9888 3.571091,-1.682 1.183549,-0.5857 1.11864,-0.5319 1.028222,-0.4675 0.91227,-0.3925 0.770808,-0.3069 0.603822,-0.2107 0.411328,-0.1039 0.193302,0.014 0.101568,0.4149 -0.17844,0.7027 -0.424691,0.9357 -0.637189,1.1142 -0.815917,1.2381 -0.960913,1.3072 -1.072138,1.3217 -1.149612,1.2816 -1.494389,1.349 -1.782631,1.2126 -2.03237,1.0628 -2.24365,0.8996 -2.416458,0.7231 -2.55077,0.533 -2.646631,0.3296 -2.704,0.1129 -2.328102,0.1054 -2.209698,0.2981 -2.02516,0.464 -1.774481,0.6029 -1.457649,0.7147 -1.074681,0.7997 -0.625568,0.8577 -0.110331,0.8886 0.15841,0.4529 0.302741,0.4172 0.456328,0.3863 0.619182,0.3598 0.791288,0.3379 0.972641,0.3207 1.16325,0.3079 1.363121,0.2998 1.72524,0.3561 1.27727,0.2887 0.85792,0.243 0.467149,0.2191 0.104971,0.217 -0.2286,0.2367 -0.53358,0.2782 -0.809971,0.3416 -3.211151,0.9503 -4.363008,0.804 -5.12634,0.6341 -5.501123,0.4409 -5.487356,0.224 -5.085061,-0.016 -4.294222,-0.2802 -3.11513,-0.5681"
           style="fill:none;stroke:#000000"
           inkscape:connector-curvature="0" />
        <path
           id="path3015"
           d="m -4.612752,1034.5319 -0.460587,-0.2066 -0.47172,-0.2712 -0.469531,-0.3244 -0.454001,-0.366 -0.42515,-0.396 -0.382957,-0.4144 -0.327452,-0.4214 -0.258601,-0.4167 -0.467319,-0.9067 -0.32112,-0.7114 -0.17253,-0.5283 -0.021501,-0.3571 0.131882,-0.1982 0.28767,-0.051 0.445858,0.084 0.606451,0.2065 0.381069,0.083 0.488402,0.01 0.575561,-0.067 0.642518,-0.1336 0.689269,-0.1958 0.715851,-0.2529 0.722221,-0.3051 0.70841,-0.3522 0.977719,-0.5083 0.813221,-0.3737 0.680478,-0.2423 0.579462,-0.1136 0.510201,0.012 0.472677,0.1347 0.466901,0.2545 0.49286,0.3712 1.019959,1.3048 0.22882,1.4182 -0.440249,1.4129 -0.987229,1.2886 -1.412161,1.0458 -1.71502,0.6841 -1.895801,0.2036 -1.954531,-0.3958"
           style="fill:none;stroke:#000000"
           inkscape:connector-curvature="0" />
        <path
           id="path3017"
           d="m -35.489721,1022.7121 0.978573,-1.6249 1.181338,-1.5187 1.338261,-1.3785 1.449319,-1.2042 1.514541,-0.9958 1.53388,-0.7534 1.50739,-0.477 1.435028,-0.1666 2.115769,0.1837 1.624681,0.5042 1.11217,0.7542 0.578211,0.9338 0.0229,1.0428 -0.55395,1.0815 -1.15217,1.0496 -1.771809,0.9474 -0.758112,0.3409 -0.75634,0.3851 -0.7345,0.4162 -0.69262,0.434 -0.630649,0.4386 -0.548631,0.4299 -0.446549,0.408 -0.32439,0.373 -0.36281,0.4654 -0.327352,0.3427 -0.307587,0.2224 -0.30352,0.1044 -0.315152,-0.011 -0.342468,-0.1245 -0.38548,-0.2353 -0.444199,-0.3439 -0.419344,-0.3135 -0.408008,-0.2304 -0.405691,-0.1479 -0.412388,-0.066 -0.42812,0.015 -0.45287,0.097 -0.486631,0.1768 -0.529419,0.2566 -1.010853,0.5174 -0.762367,0.3263 -0.52391,0.1246 -0.295512,-0.088 -0.0771,-0.3112 0.131208,-0.5452 0.32951,-0.7899 0.51772,-1.0456"
           style="fill:none;stroke:#000000"
           inkscape:connector-curvature="0" />
      </g>
    </g>
  </g>
  <g
     inkscape:groupmode="layer"
     id="layer9"
     inkscape:label="tap"
     style="display:inline">
    <g
       transform="matrix(0.99951292,0,0,0.99951292,929.79516,523.00393)"
       id="g337">
      <path
         style="fill:#cac5c0"
         d="m -929.0777,480.59999 -9.06907,0.91424 -8.44696,2.62208 -7.6439,4.14897 -6.65988,5.4949 -5.4949,6.65988 -4.14897,7.6439 -2.62208,8.44696 -0.91424,9.06907 0.91424,9.06907 2.62208,8.44696 4.14897,7.6439 5.4949,6.65987 6.65988,5.49491 7.6439,4.14897 8.44696,2.62208 9.06907,0.91424 9.06907,-0.91424 8.44696,-2.62208 7.6439,-4.14897 6.65988,-5.49491 5.4949,-6.65987 4.14897,-7.6439 2.62208,-8.44696 0.91424,-9.06907 -0.91424,-9.06907 -2.62208,-8.44696 -4.14897,-7.6439 -5.4949,-6.65988 -6.65988,-5.4949 -7.6439,-4.14897 -8.44696,-2.62208 z m 27.59062,22.92187 4.21875,30.12188 -32.4,0 11.86875,-8.4375 -3.43806,-2.29762 -3.69894,-1.64393 -3.95544,-0.988 -4.20756,-0.32983 -5.90625,1.65938 -1.60312,5.99062 0.76954,6.08649 2.30913,6.283 3.84949,6.48263 5.39059,6.68538 -9.36563,9.47813 -7.13925,-9.66361 -5.09738,-9.13795 -3.05718,-8.61061 -1.01869,-8.08158 0.35376,-4.43653 1.0607,-3.95766 1.76676,-3.4801 2.47191,-3.00384 3.05331,-2.42168 3.51658,-1.7317 3.97928,-1.04017 4.44145,-0.34707 5.83594,0.54538 6.09502,1.63318 6.3522,2.71656 6.60747,3.7955 z"
         id="circle339"
         inkscape:connector-curvature="0"
         sodipodi:nodetypes="ccccccccccccccccccccccccccccccccccccccccccccccccccccccccccccccccc" />
    </g>
  </g>
  <g
     inkscape:groupmode="layer"
     id="layer8"
     inkscape:label="untap"
     style="display:inline">
    <g
       style="display:inline"
       transform="matrix(0.99951292,0,0,0.99951292,854.23206,579.84067)"
       id="g343">
      <path
         style="fill:#0d0f0f"
         d="m -853.47777,423.73554 -4.60099,0.23233 -4.46808,0.68191 -4.31256,1.10887 -4.1344,1.51321 -3.93364,1.89494 -3.71026,2.25403 -3.46425,2.59052 -3.19563,2.90438 -2.90438,3.19563 -2.59052,3.46425 -2.25403,3.71026 -1.89494,3.93364 -1.51321,4.1344 -1.10887,4.31256 -0.68191,4.46808 -0.23233,4.60099 0.23233,4.60099 0.68191,4.46808 1.10887,4.31255 1.51321,4.13441 1.89494,3.93364 2.25403,3.71026 2.59052,3.46425 2.90438,3.19562 3.19563,2.90439 3.46425,2.59052 3.71026,2.25403 3.93364,1.89494 4.1344,1.51321 4.31256,1.10887 4.46808,0.68191 4.60099,0.23233 4.60099,-0.23233 4.46808,-0.68191 4.31256,-1.10887 4.1344,-1.51321 3.93364,-1.89494 3.71026,-2.25403 3.46425,-2.59052 3.19563,-2.90439 2.90438,-3.19562 2.59052,-3.46425 2.25403,-3.71026 1.89494,-3.93364 1.51321,-4.13441 1.10887,-4.31255 0.68191,-4.46808 0.23233,-4.60099 -0.23233,-4.60099 -0.68191,-4.46808 -1.10887,-4.31256 -1.51321,-4.1344 -1.89494,-3.93364 -2.25403,-3.71026 -2.59052,-3.46425 -2.90438,-3.19563 -3.19563,-2.90438 -3.46425,-2.59052 -3.71026,-2.25403 -3.93364,-1.89494 -4.1344,-1.51321 -4.31256,-1.10887 -4.46808,-0.68191 z m -2.84062,17.80313 28.9125,4.05 -11.39063,6.66562 3.63526,6.33713 2.59218,6.09469 1.55268,5.8483 0.51676,5.59801 -0.32929,4.26213 -0.98943,3.81379 -1.65195,3.36881 -2.31683,2.92714 -2.88574,2.37373 -3.34203,1.69641 -3.80003,1.01837 -4.2597,0.33962 -7.75169,-0.97599 -8.25413,-2.92978 -8.75904,-4.88627 -9.26639,-6.84546 9.08437,-9 6.41609,5.17616 6.2171,3.70065 6.02472,2.2224 5.83897,0.74141 3.52609,-0.39037 2.23953,-1.1565 1.18575,-2.18554 0.38925,-3.49571 -0.31492,-4.03886 -0.9444,-3.79553 -1.57333,-3.54864 -2.20172,-3.29822 -8.1,11.39062 z"
         id="circle345"
         inkscape:connector-curvature="0"
         sodipodi:nodetypes="ccccccccccccccccccccccccccccccccccccccccccccccccccccccccccccccccccccccccccccccccccccccccccccccccccc" />
    </g>
  </g>
  <g
     inkscape:groupmode="layer"
     id="layer2"
     inkscape:label="white"
     style="display:inline">
    <g
       id="g3089"
       transform="matrix(0.99951292,0,0,0.99951292,1.1980198,-3.6142061)">
      <g
         id="g3057"
         inkscape:label="0" />
      <g
         id="g3059"
         inkscape:label="Layer_1">
        <path
           id="path3061"
           d="m -2.459066,1093.352 0.520349,-2.302 -0.065615,-1.601 -0.815219,-1.4703 -1.728457,-1.9105 -1.617768,-1.8503 -0.933998,-1.6502 -0.402449,-1.8486 -0.023116,-2.4456 0.045499,-1.1303 0.045503,-1.1302 0.0455,-1.1303 0.045503,-1.1302 1.805361,0 1.805365,0 1.805361,0 1.805361,0 3.942188,0.042 1.971389,0.2145 0.429715,0.5172 -0.682834,0.9508 -1.219284,2.1641 -0.279216,2.4787 0.632668,2.4038 1.516372,1.9398 1.50018,1.8895 -0.074527,2.0952 -1.707835,2.4502 -3.399739,2.9547 -1.841163,1.3624 -1.616013,1.1157 -1.216432,0.7538 -0.642409,0.2769 -0.195339,-0.3165 8.37e-4,-0.8615 0.185531,-1.2751 0.358742,-1.5571 -1.1e-5,2e-4"
           style="fill:none;stroke:#000000"
           inkscape:connector-curvature="0" />
        <path
           id="path3063"
           d="m 27.343354,1083.3143 -1.371331,-2.452 -1.741883,-1.5141 -2.204684,-0.6264 -2.759723,0.2114 -1.780877,0.2132 -1.430185,-0.2899 -1.429774,-0.9446 -1.779619,-1.7502 -0.802236,-0.8535 -0.802233,-0.8535 -0.802233,-0.8534 -0.802237,-0.8535 1.127459,-1.0208 1.127463,-1.0208 1.127455,-1.0208 1.127463,-1.0208 1.127455,-1.0208 1.127463,-1.0207 1.127455,-1.0209 1.127463,-1.0207 0.687657,0.7695 0.687656,0.7697 0.687657,0.7696 0.68766,0.7697 1.457933,1.4332 1.42723,0.9561 1.509204,0.5361 1.703845,0.1734 0.836898,0 0.836897,0 0.836894,0 0.836897,0 -0.05838,1.7361 -0.05838,1.7361 -0.05838,1.7362 -0.05838,1.7361 -0.367037,4.8959 -0.681623,2.5865 -0.976188,0.243 -1.250727,-2.1346 0,0 0,0 0,10e-5 1.1e-5,0.02"
           style="fill:none;stroke:#000000"
           inkscape:connector-curvature="0" />
        <path
           id="path3065"
           d="m -29.678811,1083.5747 -1.267806,-0.2316 -1.038221,-0.331 -0.7015,-0.3862 -0.257645,-0.3973 0.0677,-0.3654 0.18433,-0.2992 0.272803,-0.2023 0.333131,-0.074 0.542895,-0.1944 0.843941,-0.5293 1.029607,-0.7834 1.099896,-0.9566 1.267189,-1.3726 0.81917,-1.4237 0.440586,-1.6439 0.131432,-2.0331 0.110781,-1.8594 0.337599,-1.4916 0.572308,-1.1467 0.814894,-0.8249 0.795876,-0.6606 0.810067,-0.8285 0.729447,-0.8902 0.554021,-0.8465 0.625843,-1.0011 0.528201,-0.2481 0.650806,0.564 0.993664,1.435 1.001218,1.272 1.436368,1.4951 1.679624,1.5316 1.730983,1.3818 1.025876,0.7544 1.025873,0.7544 1.025876,0.7545 1.025876,0.7544 -0.878333,0 -0.878329,0 -0.878333,0 -0.878333,0 -2.816985,0.3052 -1.826416,1.0186 -0.985847,1.8871 -0.295282,2.9106 -0.398501,2.9191 -1.647907,1.5125 -3.575916,0.3475 -6.182526,-0.576 4e-6,10e-5"
           style="fill:none;stroke:#000000"
           inkscape:connector-curvature="0" />
        <path
           id="path3067"
           d="m -40.895943,1057.5363 -1.593528,-1.8747 -1.304961,-1.6578 -0.881731,-1.2611 L -45,1052.058 l 0.393211,-0.2702 1.070628,-0.1326 1.584528,0.012 1.934912,0.1648 2.776209,0.2601 1.644329,-0.1521 0.981379,-0.7204 0.787358,-1.4443 0.855719,-1.6551 1.08061,-0.8716 2.001089,-0.3676 3.617157,-0.1435 1.039862,-0.028 1.039857,-0.028 1.039862,-0.028 1.039861,-0.028 -0.02831,1.1302 -0.02831,1.1303 -0.02831,1.1302 -0.02831,1.1303 0.017,1.982 0.129987,2.0547 0.221343,1.8847 0.291058,1.472 0.193153,0.7181 0.193152,0.7181 0.193157,0.7181 0.193152,0.7181 -0.673451,-0.5297 -0.673455,-0.5298 -0.673452,-0.5296 -0.673451,-0.5298 -2.221286,-1.5192 -1.723237,-0.4546 -1.612524,0.6306 -1.889128,1.7359 -2.315073,1.9156 -2.173185,0.336 -2.41938,-1.3276 -3.053661,-3.0748 1.4e-5,0"
           style="fill:none;stroke:#000000"
           inkscape:connector-curvature="0" />
        <path
           id="path3069"
           d="m 21.307755,1053.1023 -0.109382,-3.5303 -0.420987,-2.6617 -0.871211,-2.3286 -1.460058,-2.5307 -1.283911,-1.8872 -1.380128,-1.8366 -1.310641,-1.5759 -1.075444,-1.105 -0.547033,-0.4845 -0.547037,-0.4845 -0.547037,-0.4845 -0.547037,-0.4846 0.760199,-0.3196 0.760195,-0.3197 0.760199,-0.3196 0.760195,-0.3196 1.594772,-0.8033 0.920866,-0.9383 0.423241,-1.3771 0.101906,-2.1196 0.328815,-2.891 1.297602,-1.5709 2.733133,-0.4896 4.6354,0.3532 4.313126,0.6314 1.968913,0.6609 -0.180269,0.8556 -2.13441,1.2157 -1.878842,1.016 -1.025504,1.0928 -0.427819,1.6526 -0.0858,2.6952 -0.108231,2.5439 -0.410616,1.8257 -0.841904,1.444 -1.402086,1.3987 -2.227723,2.6378 -0.46478,2.4444 1.274035,2.115 2.98873,1.6498 0.991138,0.1105 1.088468,-0.3693 1.231611,-0.8738 1.420562,-1.4028 1.627923,-1.6626 1.216934,-0.8078 1.150622,-0.083 1.428998,0.5124 2.506089,2.0611 3.220182,3.575 2.643669,3.526 0.776544,1.9141 -0.464432,0.029 -1.018485,-0.1676 -1.422227,-0.3332 -1.675668,-0.4679 -2.381967,-0.6448 -1.498965,-0.1044 -1.070142,0.5073 -1.095506,1.1904 -0.727543,0.95 -0.651335,0.9445 -0.503975,0.8299 -0.28547,0.6059 -0.556671,0.4412 -1.242379,0.3813 -1.744172,0.2807 -2.062035,0.1392 -1.308887,0.033 -1.308887,0.033 -1.308887,0.033 -1.308883,0.033 8.1e-5,-1.6462 8.5e-5,-1.6462 8.6e-5,-1.6462 8.8e-5,-1.6459"
           style="fill:none;stroke:#000000"
           inkscape:connector-curvature="0" />
        <path
           id="path3071"
           d="m -20.887965,1040.8119 -0.63838,-2.1052 -1.682125,-1.8386 -2.37633,-1.3014 -2.721001,-0.4939 -2.545582,-0.4334 -1.323266,-1.5877 -0.242905,-3.1736 0.69552,-5.1911 0.596951,-3.0792 0.493016,-1.6046 0.496194,-0.3407 0.606487,0.7126 2.288034,3.5501 1.895747,1.9309 2.080332,0.6923 2.841782,-0.1659 2.457808,-0.2581 1.507064,0.1966 1.013304,0.8392 0.976518,1.6696 0.695094,1.211 0.727633,1.0445 0.673855,0.7665 0.533774,0.3769 0.01079,0.5291 -0.750104,1.1809 -1.379831,1.6577 -1.878392,1.9598 -2.266657,2.1315 -1.572478,1.2369 -0.915909,0.3667 -0.296943,-0.4794"
           style="fill:none;stroke:#000000"
           inkscape:connector-curvature="0" />
        <path
           id="path3073"
           d="m -0.01114,1031.1279 -3.415773,-0.3517 -1.913953,-0.3961 -0.697149,-0.543 0.234648,-0.7923 0.881129,-2.4018 0.078849,-2.7067 -0.655958,-2.413 -1.323259,-1.5205 -0.78019,-0.5245 -0.638904,-0.633 -0.431696,-0.6618 -0.158548,-0.6109 1.06809,-1.8388 2.597319,-2.7836 3.2161,-2.8467 2.924451,-2.0279 1.057592,-0.4879 0.454075,0.1699 -0.079189,1.0576 -0.542208,2.1755 -0.506005,2.2493 0.048958,1.5694 0.742081,1.4098 1.57336,1.7703 1.425107,1.7253 0.997264,1.8439 0.666429,2.1983 0.432599,2.7882 0.191827,2.1268 0.073673,1.7151 -0.046173,1.1281 -0.167715,0.3662 -0.748343,-0.1144 -1.627087,-0.1802 -2.26608,-0.2213 -2.665321,-0.2376"
           style="fill:none;stroke:#000000"
           inkscape:connector-curvature="0" />
        <path
           id="path3075"
           d="m 17.5,1052.3622 -0.09035,1.7893 -0.265185,1.7376 -0.431228,1.6771 -0.588472,1.6078 -0.736919,1.5297 -0.876568,1.4429 -1.007426,1.3472 -1.129483,1.2428 -1.242744,1.1295 -1.347208,1.0074 -1.442877,0.8765 -1.529748,0.737 -1.607825,0.5884 -1.677104,0.4313 -1.737589,0.2651 -1.789274,0.09 -1.789271,-0.09 -1.737588,-0.2651 -1.677104,-0.4313 -1.607825,-0.5884 -1.529749,-0.737 -1.442877,-0.8765 -1.347211,-1.0074 -1.242744,-1.1295 -1.129479,-1.2428 -1.007426,-1.3472 -0.876568,-1.4429 -0.736919,-1.5297 -0.588473,-1.6078 -0.431227,-1.6771 -0.265185,-1.7376 -0.09035,-1.7893 0.09035,-1.7893 0.265185,-1.7376 0.431227,-1.6771 0.588473,-1.6078 0.736919,-1.5297 0.876568,-1.4429 1.007426,-1.3472 1.129479,-1.2428 1.242744,-1.1295 1.347211,-1.0074 1.442877,-0.8765 1.529749,-0.737 1.607825,-0.5884 1.677104,-0.4313 1.737588,-0.2651 1.789271,-0.09 1.789274,0.09 1.737589,0.2651 1.677104,0.4313 1.607825,0.5884 1.529748,0.737 1.442877,0.8765 1.347208,1.0074 1.242744,1.1295 1.129483,1.2428 1.007426,1.3472 0.876568,1.4429 0.736919,1.5297 0.588472,1.6078 0.431228,1.6771 0.265185,1.7376 0.09035,1.7893"
           style="fill:none;stroke:#000000"
           inkscape:connector-curvature="0" />
      </g>
    </g>
  </g>
</svg>
